<svg version="1.1" viewBox="0 0 96 96" xmlns="http://www.w3.org/2000/svg" xmlns:xlink="http://www.w3.org/1999/xlink" id="Icons_VennDiagram" overflow="hidden"><path d=" M 27.75 38.59 C 34.5609 36.3538 42.0206 37.3558 48 41.31 C 53.9794 37.3558 61.4391 36.3538 68.25 38.59 C 68.4093 37.5978 68.4928 36.5949 68.5 35.59 C 68.5 24.2682 59.3218 15.09 48 15.09 C 36.6782 15.09 27.5 24.2682 27.5 35.59 C 27.5072 36.5949 27.5907 37.5978 27.75 38.59 Z"/><path d=" M 70.38 42.74 C 68.3986 48.8753 63.9944 53.9335 58.19 56.74 C 58.4353 58.1131 58.5591 59.5052 58.56 60.9 C 58.5611 67.6583 55.645 74.0883 50.56 78.54 C 53.6987 80.4121 57.2854 81.4003 60.94 81.4 C 72.2563 81.4044 81.4335 72.2342 81.4379 60.9179 C 81.4409 53.2625 77.1761 46.244 70.38 42.72 Z"/><path d=" M 54.67 55 C 53.4891 51.0782 51.1671 47.5969 48 45 C 44.8329 47.5969 42.5109 51.0782 41.33 55 C 45.649 56.5067 50.351 56.5067 54.67 55 Z"/><path d=" M 35.06 81.42 C 38.7146 81.4203 42.3013 80.4321 45.44 78.56 C 40.355 74.1083 37.4389 67.6783 37.44 60.92 C 37.4409 59.5252 37.5648 58.1331 37.81 56.76 C 32.0056 53.9535 27.6014 48.8953 25.62 42.76 C 15.5739 47.9692 11.6529 60.336 16.8621 70.3821 C 20.386 77.1782 27.4046 81.443 35.06 81.44 Z"/><path d=" M 48 76.8 C 52.7838 72.916 55.5612 67.082 55.56 60.92 C 55.5512 59.9156 55.471 58.9131 55.32 57.92 C 50.5647 59.4802 45.4353 59.4802 40.68 57.92 C 40.529 58.9131 40.4488 59.9156 40.44 60.92 C 40.4388 67.082 43.2162 72.916 48 76.8 Z"/><path d=" M 67.61 41.55 C 61.9662 39.5944 55.7477 40.2236 50.61 43.27 C 53.8104 46.0796 56.1882 49.7052 57.49 53.76 C 62.3583 51.2045 66.0022 46.808 67.61 41.55 Z"/><path d=" M 35.06 40.42 C 32.7895 40.4251 30.5355 40.8069 28.39 41.55 C 30.0096 46.8169 33.6728 51.2148 38.56 53.76 C 39.8618 49.7052 42.2396 46.0796 45.44 43.27 C 42.2985 41.4055 38.7131 40.4211 35.06 40.42 Z"/></svg>