<svg version="1.1" viewBox="0 0 96 96" xmlns="http://www.w3.org/2000/svg" xmlns:xlink="http://www.w3.org/1999/xlink" id="Icons_Gauge" overflow="hidden"><path d=" M 46 30.1 L 46 34.1 C 46.7 34.1 47.3 34 48 34 C 48.7 34 49.3 34 50 34.1 L 50 30.1 C 53.9 30.3 57.6 31.1 61 32.4 L 59.5 36 C 60.8 36.5 62 37 63.2 37.6 L 64.7 33.9 C 66.6 34.8 68.3 35.9 70 37.1 L 74.3 32.8 C 67 27.3 57.9 24 48 24 C 23.7 24 4 43.7 4 68 L 4 72 L 10 72 L 10 68 C 10 63.9 10.7 59.9 11.9 56.2 L 15.6 57.7 C 16 56.4 16.5 55.2 17 54 L 13.3 52.5 C 14.8 49.1 16.9 45.9 19.3 43.2 L 22.1 46 C 23 45 23.9 44 24.9 43.1 L 22.1 40.3 C 24.8 37.8 27.9 35.6 31.3 33.9 L 32.8 37.6 C 34 37 35.2 36.5 36.5 36 L 35 32.3 C 38.4 31 42.1 30.3 46 30.1 Z"/><path d=" M 84.1 42.8 L 79.8 47.1 C 80.9 48.8 81.9 50.6 82.7 52.4 L 79 54 C 79.5 55.2 80 56.5 80.4 57.7 L 84.1 56.2 C 85.3 59.9 86 63.9 86 68 L 86 72 L 92 72 L 92 68 C 92 58.6 89.1 50 84.1 42.8 Z"/><path d=" M 45.2 66.2 C 45 66.3 44.9 66.5 44.7 66.7 C 43.3 68.4 43.5 70.9 45.2 72.4 C 46.9 73.8 49.4 73.6 50.9 71.9 L 82 35 L 45.2 66.2 Z"/></svg>